<?xml version="1.0" encoding="utf-8"?>
<!-- Generator: Adobe Illustrator 26.3.1, SVG Export Plug-In . SVG Version: 6.00 Build 0)  -->
<svg version="1.1" id="Layer_1" xmlns="http://www.w3.org/2000/svg" xmlns:xlink="http://www.w3.org/1999/xlink" x="0px" y="0px"
	 viewBox="0 0 305 180" style="enable-background:new 0 0 305 180;" xml:space="preserve">
<style type="text/css">
	.st0{fill:#FFFFFF;stroke:#000000;stroke-width:3;stroke-miterlimit:10;}
	.st1{fill:#FFFFFF;stroke:#000000;stroke-miterlimit:10;}
	.st2{font-family:'MyriadPro-Regular';}
	.st3{font-size:12px;}
</style>
<path class="st0" d="M302.6,180c0-82.3-67.7-150-150-150S2.6,97.7,2.6,180"/>
<path class="st1" d="M148.5,192.4"/>
<path class="st0" d="M152.6,43L152.6,43c-1.7,0-3.2-1.4-3.2-3.2V20.5c0-1.7,1.4-3.2,3.2-3.2h0c1.7,0,3.2,1.4,3.2,3.2v19.4
	C155.8,41.6,154.3,43,152.6,43z"/>
<path class="st0" d="M64.4,75.1L64.4,75.1c-1.3,1.1-3.3,0.9-4.5-0.4L47.5,59.9c-1.1-1.3-0.9-3.3,0.4-4.5l0,0
	c1.3-1.1,3.3-0.9,4.5,0.4l12.5,14.8C66,72,65.8,74,64.4,75.1z"/>
<path class="st0" d="M11.6,98.8L11.6,98.8c-0.9,1.5-0.4,3.4,1.2,4.3l16.8,9.7c1.5,0.9,3.4,0.4,4.3-1.2h0c0.9-1.5,0.4-3.4-1.2-4.3
	l-16.8-9.7C14.4,96.7,12.4,97.2,11.6,98.8z"/>
<path class="st0" d="M105.7,51.3L105.7,51.3c-1.6,0.6-3.5-0.2-4.1-1.9L95,31.2c-0.6-1.6,0.2-3.5,1.9-4.1l0,0
	c1.6-0.6,3.5,0.2,4.1,1.9l6.6,18.2C108.2,48.9,107.3,50.7,105.7,51.3z"/>
<path class="st0" d="M208.3,27.2L208.3,27.2c1.6,0.6,2.5,2.4,1.9,4.1l-6.6,18.2c-0.6,1.6-2.4,2.5-4.1,1.9l0,0
	c-1.6-0.6-2.5-2.4-1.9-4.1l6.6-18.2C204.8,27.4,206.7,26.6,208.3,27.2z"/>
<path class="st0" d="M257.3,55.4L257.3,55.4c1.3,1.1,1.5,3.1,0.4,4.5l-12.5,14.8c-1.1,1.3-3.1,1.5-4.5,0.4l0,0
	c-1.3-1.1-1.5-3.1-0.4-4.5l12.5-14.8C253.9,54.5,255.9,54.3,257.3,55.4z"/>
<path class="st0" d="M293.6,98.8L293.6,98.8c0.9,1.5,0.4,3.4-1.2,4.3l-16.8,9.7c-1.5,0.9-3.4,0.4-4.3-1.2l0,0
	c-0.9-1.5-0.4-3.4,1.2-4.3l16.8-9.7C290.8,96.7,292.8,97.2,293.6,98.8z"/>
<text transform="matrix(1 0 0 1 8.773804e-05 98.4829)" class="st2 st3">C</text>
<text transform="matrix(1 0 0 1 298.6472 98.6029)" class="st2 st3">B</text>
<g>
	<g>
		<path d="M39.6,52.6v-8.3h1.2v8.3H39.6z M40.7,52.6v-1.1h0.9c0.9,0,1.5-0.2,1.9-0.7s0.6-1.2,0.6-2.2c0-1.1-0.2-1.9-0.6-2.4
			s-1.1-0.8-1.9-0.8h-0.9l-0.1-1.1h1c2.5,0,3.8,1.4,3.8,4.3c0,2.7-1.3,4-3.8,4H40.7z"/>
	</g>
</g>
<path class="st1" d="M180.9,19.8L180.9,19.8c1.7,0.3,2.9,1.9,2.6,3.7l-3.4,19.1c-0.3,1.7-1.9,2.9-3.7,2.6h0
	c-1.7-0.3-2.9-1.9-2.6-3.7l3.4-19.1C177.5,20.6,179.2,19.5,180.9,19.8z"/>
<path class="st1" d="M234,39.1L234,39.1c1.5,0.9,2,2.8,1.2,4.3l-9.7,16.8c-0.9,1.5-2.8,2-4.3,1.2v0c-1.5-0.9-2-2.8-1.2-4.3l9.7-16.8
	C230.6,38.8,232.5,38.3,234,39.1z"/>
<path class="st1" d="M47.5,92L47.5,92c-1.1,1.3-3.1,1.5-4.5,0.4L28.2,80c-1.3-1.1-1.5-3.1-0.4-4.5l0,0c1.1-1.3,3.1-1.5,4.5-0.4
	l14.8,12.5C48.5,88.7,48.7,90.7,47.5,92z"/>
<path class="st1" d="M84,61.4L84,61.4c-1.5,0.9-3.4,0.4-4.3-1.2L70,43.5c-0.9-1.5-0.4-3.4,1.2-4.3v0c1.5-0.9,3.4-0.4,4.3,1.2
	l9.7,16.8C86.1,58.6,85.5,60.5,84,61.4z"/>
<text transform="matrix(1 0 0 1 13.6205 72.8287)" class="st2 st3">C#</text>
<g>
	<g>
		<path d="M60.9,36.4v-8.3h1.2v8.3H60.9z M62,36.4v-1.1H63c0.9,0,1.5-0.2,1.9-0.7s0.6-1.2,0.6-2.2c0-1.1-0.2-1.9-0.6-2.4
			s-1.1-0.8-1.9-0.8h-0.9l-0.1-1.1h1c2.5,0,3.8,1.4,3.8,4.3c0,2.7-1.3,4-3.8,4H62z"/>
		<path d="M67.7,31.2v-1h5.9v1H67.7z M67.7,34.3v-1h5.9v1H67.7z M68.5,36.4l0.7-8.3h1l-0.7,8.3H68.5z M71.1,36.4l0.7-8.3h1l-0.7,8.3
			H71.1z"/>
	</g>
</g>
<text transform="matrix(1 0 0 1 92.0348 23.5292)" class="st2 st3">E</text>
<text transform="matrix(1 0 0 1 259.576 50.2831)" class="st2 st3">A</text>
<text transform="matrix(1 0 0 1 282.4989 72.8288)" class="st2 st3">A#</text>
<text transform="matrix(1 0 0 1 149.4306 14.0113)" class="st2 st3">F</text>
<text transform="matrix(1 0 0 1 207.1758 23.5294)" class="st2 st3">G</text>
<text transform="matrix(1 0 0 1 178.6421 17.3297)" class="st2 st3">F#</text>
<path class="st1" d="M277.9,75.5L277.9,75.5c1.1,1.3,0.9,3.3-0.4,4.5l-14.8,12.5c-1.3,1.1-3.3,0.9-4.5-0.4l0,0
	c-1.1-1.3-0.9-3.3,0.4-4.5l14.8-12.5C274.8,74,276.8,74.2,277.9,75.5z"/>
<text transform="matrix(1 0 0 1 233.8549 34.1422)" class="st2 st3">G#</text>
</svg>
