<?xml version="1.0" encoding="utf-8"?>
<!-- Generator: Adobe Illustrator 26.3.1, SVG Export Plug-In . SVG Version: 6.00 Build 0)  -->
<svg version="1.1" id="Layer_1" xmlns="http://www.w3.org/2000/svg" xmlns:xlink="http://www.w3.org/1999/xlink" x="0px" y="0px"
	 viewBox="0 0 18 94" style="enable-background:new 0 0 18 94;" xml:space="preserve">
<style type="text/css">
	.st0{fill:#464646;}
	.st1{fill:#EEEEEE;}
</style>
<g>
	
		<image style="overflow:visible;opacity:0.45;enable-background:new    ;" width="125" height="446" xlink:href="7A1F354A.png"  transform="matrix(0.2308 0 0 0.1846 -4.3841 17.5217)">
	</image>
	<g>
		<g>
			<path class="st0" d="M14.5,87.9L3.5,87.6c0,0,3.7-56.7,4-60.1c0.3-3.5,1-7.1,1.7-7.1c0.7,0,1.8,3.4,2.1,7.1
				C11.5,31.2,14.5,87.9,14.5,87.9z"/>
			<path class="st0" d="M17.4,85.6c0,4.6-3.7,8.4-8.4,8.4s-8.4-3.8-8.4-8.4c0-4.6,3.7-8.4,8.4-8.4S17.4,81,17.4,85.6z"/>
			<circle class="st1" cx="9.1" cy="85.6" r="2.7"/>
		</g>
	</g>
</g>
</svg>
